<svg xmlns="http://www.w3.org/2000/svg">
    <defs>
        <symbol id="search" viewBox="0 0 16 16">
            <path d="M13.8684 13.1606L10.9783 10.2701C11.8013 9.26491 12.2064 7.98175 12.1098 6.68613C12.0132 5.39052 11.4223 4.18163 10.4593 3.30965C9.49632 2.43767 8.235 1.96933 6.93636 2.00156C5.63771 2.03379 4.40117 2.56412 3.48261 3.4828C2.56404 4.40148 2.03378 5.63819 2.00156 6.937C1.96933 8.23581 2.43761 9.4973 3.30948 10.4604C4.18135 11.4235 5.39008 12.0145 6.68552 12.1112C7.98097 12.2078 9.26397 11.8026 10.269 10.9794L13.1591 13.8669C13.254 13.9547 13.3792 14.0023 13.5084 13.9999C13.6376 13.9975 13.761 13.9452 13.8525 13.854C13.9441 13.7628 13.9969 13.6397 13.9999 13.5105C14.0028 13.3812 13.9557 13.2559 13.8684 13.1606ZM7.05635 11.1167C6.25352 11.1165 5.46879 10.8782 4.80137 10.432C4.13396 9.98571 3.61384 9.35154 3.30679 8.60966C2.99975 7.86777 2.91957 7.05148 3.07638 6.26402C3.2332 5.47656 3.61998 4.75329 4.1878 4.18567C4.75562 3.61805 5.47899 3.23158 6.26643 3.07513C7.05387 2.91868 7.87001 2.99928 8.61165 3.30673C9.35329 3.61418 9.98711 4.13468 10.433 4.8024C10.8788 5.47012 11.1167 6.25508 11.1165 7.05801C11.1152 8.13369 10.6875 9.16496 9.92715 9.92576C9.16682 10.6866 8.13589 11.1148 7.06036 11.1167H7.05635Z"/>
        </symbol>
        <symbol id="plus" viewBox="0 0 24 24">
            <path d="M16.2185 11.2195H12.7815V7.7815C12.7815 7.57423 12.6992 7.37546 12.5526 7.2289C12.406 7.08234 12.2073 7 12 7C11.7927 7 11.594 7.08234 11.4474 7.2289C11.3008 7.37546 11.2185 7.57423 11.2185 7.7815V11.2195H7.7815C7.57423 11.2195 7.37546 11.3018 7.2289 11.4484C7.08234 11.595 7 11.7937 7 12.001C7 12.2083 7.08234 12.407 7.2289 12.5536C7.37546 12.7002 7.57423 12.7825 7.7815 12.7825H11.2195V16.2195C11.2195 16.4268 11.3018 16.6255 11.4484 16.7721C11.595 16.9187 11.7937 17.001 12.001 17.001C12.2083 17.001 12.407 16.9187 12.5536 16.7721C12.7002 16.6255 12.7825 16.4268 12.7825 16.2195V12.7815H16.2195C16.4268 12.7815 16.6255 12.6992 16.7721 12.5526C16.9187 12.406 17.001 12.2073 17.001 12C17.001 11.7927 16.9187 11.594 16.7721 11.4474C16.6255 11.3008 16.4268 11.2185 16.2195 11.2185L16.2185 11.2195Z"/>
        </symbol>
        <symbol id="arrow-up" viewBox="0 0 24 24">
            <path d="M7.7119 10C7.87849 9.99974 8.03992 10.0579 8.16814 10.1644L11.9872 13.3608L15.8132 10.2738C15.8856 10.21 15.9701 10.1616 16.0616 10.1314C16.1532 10.1013 16.2498 10.0899 16.3459 10.0981C16.4419 10.1063 16.5353 10.1339 16.6204 10.1792C16.7055 10.2244 16.7806 10.2864 16.8412 10.3615C16.9018 10.4366 16.9465 10.5232 16.9728 10.616C16.9992 10.7089 17.0064 10.8061 16.9943 10.9018C16.9821 10.9976 16.9507 11.0898 16.902 11.1731C16.8534 11.2564 16.7883 11.329 16.7109 11.3865L12.4356 14.8379C12.3081 14.9427 12.1482 15 11.9833 15C11.8183 15 11.6585 14.9427 11.531 14.8379L7.25565 11.2703C7.14339 11.1756 7.06278 11.0487 7.02466 10.9067C6.98654 10.7647 6.99274 10.6145 7.04242 10.4762C7.09211 10.3378 7.1829 10.218 7.30258 10.1329C7.42227 10.0478 7.56511 10.0014 7.7119 10Z"/>
        </symbol>
        <symbol id="arrow-down" viewBox="0 0 24 24">
            <path d="M16.2881 14C16.1215 14.0003 15.9601 13.9421 15.8319 13.8356L12.0128 10.6392L8.18681 13.7262C8.11443 13.79 8.02993 13.8384 7.93838 13.8686C7.84684 13.8987 7.75015 13.9101 7.65413 13.9019C7.5581 13.8937 7.46472 13.8661 7.3796 13.8208C7.29448 13.7756 7.21938 13.7136 7.15881 13.6385C7.09824 13.5634 7.05346 13.4768 7.02715 13.384C7.00084 13.2911 6.99355 13.1939 7.00572 13.0982C7.01789 13.0024 7.04926 12.9102 7.09796 12.8269C7.14665 12.7436 7.21166 12.671 7.28907 12.6135L11.5644 9.1621C11.6919 9.05729 11.8518 9 12.0167 9C12.1817 9 12.3415 9.05729 12.469 9.16211L16.7443 12.7297C16.8566 12.8244 16.9372 12.9513 16.9753 13.0933C17.0135 13.2353 17.0073 13.3855 16.9576 13.5238C16.9079 13.6622 16.8171 13.782 16.6974 13.8671C16.5777 13.9522 16.4349 13.9986 16.2881 14Z"/>
        </symbol>
        <symbol id="files" viewBox="0 0 28 28">
            <g clip-path="url(#clip0_1_2131)">
                <path d="M6 8.5H22C22.3978 8.5 22.7794 8.65804 23.0607 8.93934C23.342 9.22064 23.5 9.60218 23.5 10V20C23.5 20.3978 23.342 20.7794 23.0607 21.0607C22.7794 21.342 22.3978 21.5 22 21.5H7C6.60218 21.5 6.22064 21.342 5.93934 21.0607C5.65804 20.7794 5.5 20.3978 5.5 20V9C5.5 8.86739 5.55268 8.74021 5.64645 8.64645C5.74021 8.55268 5.86739 8.5 6 8.5V8.5Z"
                      stroke-linecap="round" stroke-linejoin="round"/>
                <path d="M7 5.5H14C14.3978 5.5 14.7794 5.65804 15.0607 5.93934C15.342 6.22064 15.5 6.60218 15.5 7V8C15.5 8.13261 15.4473 8.25979 15.3536 8.35355C15.2598 8.44732 15.1326 8.5 15 8.5H6C5.86739 8.5 5.74021 8.44732 5.64645 8.35355C5.55268 8.25979 5.5 8.13261 5.5 8V7C5.5 6.60218 5.65804 6.22064 5.93934 5.93934C6.22064 5.65804 6.60218 5.5 7 5.5V5.5Z"
                      stroke-linecap="round" stroke-linejoin="round"/>
            </g>
            <defs>
                <clipPath>
                    <rect transform="translate(5 5)"/>
                </clipPath>
            </defs>
        </symbol>
        <symbol id="notes" viewBox="0 0 28 28">
            <g clip-path="url(#clip0_1_2128)">
                <path d="M17.481 17.102H8.95103C8.84349 17.102 8.74035 17.1447 8.66431 17.2208C8.58826 17.2968 8.54553 17.4 8.54553 17.5075C8.54553 17.6151 8.58826 17.7182 8.66431 17.7943C8.74035 17.8703 8.84349 17.913 8.95103 17.913H17.481C17.5886 17.913 17.6917 17.8703 17.7678 17.7943C17.8438 17.7182 17.8865 17.6151 17.8865 17.5075C17.8865 17.4 17.8438 17.2968 17.7678 17.2208C17.6917 17.1447 17.5886 17.102 17.481 17.102Z"/>
                <path d="M17.481 13.858H8.95103C8.84349 13.858 8.74035 13.9007 8.66431 13.9768C8.58826 14.0528 8.54553 14.156 8.54553 14.2635C8.54553 14.371 8.58826 14.4742 8.66431 14.5502C8.74035 14.6263 8.84349 14.669 8.95103 14.669H17.481C17.5886 14.669 17.6917 14.6263 17.7678 14.5502C17.8438 14.4742 17.8865 14.371 17.8865 14.2635C17.8865 14.156 17.8438 14.0528 17.7678 13.9768C17.6917 13.9007 17.5886 13.858 17.481 13.858Z"/>
                <path d="M8.95201 11.021H13.428C13.5356 11.021 13.6387 10.9783 13.7147 10.9023C13.7908 10.8262 13.8335 10.7231 13.8335 10.6155C13.8335 10.508 13.7908 10.4048 13.7147 10.3288C13.6387 10.2527 13.5356 10.21 13.428 10.21H8.95201C8.84447 10.21 8.74131 10.2527 8.66527 10.3288C8.58922 10.4048 8.54651 10.508 8.54651 10.6155C8.54651 10.7231 8.58922 10.8262 8.66527 10.9023C8.74131 10.9783 8.84447 11.021 8.95201 11.021Z"/>
                <path d="M16.7422 22.9991L22.002 18.0332V7.0015C22.002 6.44974 21.5527 6.00052 21 6.00052H6C5.44922 6.00052 5 6.44974 5 7.0015V22.0025C5 22.5518 5.44922 22.9991 6 22.9991H16.7422ZM17.1406 23.9991H6C4.89844 23.9991 4 23.1035 4 22.0025V7.0015C4 5.89798 4.89844 5.00052 6 5.00052H21C22.1035 5.00052 23.002 5.89798 23.002 7.0015V18.4644L17.1406 23.9991Z"/>
            </g>
            <defs>
                <clipPath>
                    <rect width="19.002" height="18.999" transform="translate(4 5)"/>
                </clipPath>
            </defs>
        </symbol>
        <symbol id="tasks" viewBox="0 0 28 28">
            <g clip-path="url(#clip0_1_2125)">
                <path d="M20.046 5.3H17.877C17.7243 4.83366 17.4439 4.41952 17.0675 4.10467C16.6911 3.78983 16.234 3.58691 15.748 3.519C15.5647 3.07079 15.2521 2.68729 14.8501 2.41735C14.448 2.14741 13.9747 2.00327 13.4905 2.00327C13.0063 2.00327 12.533 2.14741 12.1309 2.41735C11.7289 2.68729 11.4163 3.07079 11.233 3.519C10.7506 3.59039 10.2977 3.79488 9.92515 4.1095C9.55259 4.42411 9.27515 4.83639 9.124 5.3H6.955C6.17239 5.30079 5.42199 5.61169 4.86814 6.16461C4.31428 6.71753 4.00212 7.4674 4 8.25L4 23.816C4.00079 24.5995 4.31238 25.3506 4.86638 25.9046C5.42037 26.4586 6.17153 26.7702 6.955 26.771H20.046C20.8293 26.7699 21.5802 26.4582 22.134 25.9043C22.6878 25.3503 22.9992 24.5993 23 23.816V8.25C22.9979 7.46757 22.6859 6.71785 22.1322 6.16496C21.5786 5.61207 20.8284 5.30106 20.046 5.3ZM10.011 6.1C10.011 5.67566 10.1796 5.26869 10.4796 4.96863C10.7797 4.66857 11.1867 4.5 11.611 4.5C11.7235 4.4992 11.8326 4.46105 11.9211 4.39155C12.0096 4.32205 12.0725 4.22513 12.1 4.116C12.176 3.80513 12.3533 3.52837 12.6038 3.32924C12.8544 3.13011 13.164 3.01992 13.484 3.016C13.804 3.01118 14.116 3.11613 14.368 3.31337C14.62 3.51061 14.7968 3.78823 14.869 4.1C14.8936 4.21402 14.9568 4.31606 15.0479 4.38892C15.1389 4.46179 15.2524 4.50102 15.369 4.5H15.394C15.8183 4.5 16.2253 4.66857 16.5254 4.96863C16.8254 5.26869 16.994 5.67566 16.994 6.1V6.838H10.011V6.1ZM21.986 23.816C21.9855 24.3304 21.7809 24.8235 21.4172 25.1872C21.0535 25.5509 20.5604 25.7555 20.046 25.756H6.955C6.44064 25.7555 5.9475 25.5509 5.5838 25.1872C5.22009 24.8235 5.01553 24.3304 5.015 23.816V8.25C5.01553 7.73564 5.22009 7.24251 5.5838 6.8788C5.9475 6.51509 6.44064 6.31053 6.955 6.31H9V7.35C9 7.48473 9.05352 7.61394 9.14879 7.70921C9.24406 7.80448 9.37327 7.858 9.508 7.858H17.5C17.6347 7.858 17.7639 7.80448 17.8592 7.70921C17.9545 7.61394 18.008 7.48473 18.008 7.35V6.311H20.049C20.5634 6.31153 21.0565 6.51609 21.4202 6.8798C21.7839 7.24351 21.9885 7.73664 21.989 8.251L21.986 23.816Z"/>
                <path fill-rule="evenodd" clip-rule="evenodd"
                      d="M18.6192 13.6175C18.8144 13.8127 18.8144 14.1293 18.6192 14.3246L12.8033 20.1406C12.7095 20.2343 12.5823 20.287 12.4497 20.287C12.3171 20.287 12.1899 20.2343 12.0961 20.1405L9.14643 17.1905C8.95118 16.9953 8.95119 16.6787 9.14646 16.4834C9.34174 16.2882 9.65832 16.2882 9.85357 16.4835L12.4497 19.0799L17.9121 13.6175C18.1073 13.4222 18.4239 13.4222 18.6192 13.6175Z"/>
            </g>
            <defs>
                <clipPath>
                    <rect width="19.001" height="24.771" transform="translate(4 2)"/>
                </clipPath>
            </defs>
        </symbol>
        <symbol id="schedule" viewBox="0 0 28 28">
            <g clip-path="url(#clip0_1_2121)">
                <path d="M10.5898 14.5342H11.3364C11.8055 14.527 12.1743 14.4035 12.4429 14.1636C12.7114 13.9237 12.8457 13.5996 12.8457 13.1914C12.8457 12.2747 12.3892 11.8164 11.4761 11.8164C11.0464 11.8164 10.7026 11.9399 10.4448 12.187C10.1906 12.4305 10.0635 12.7546 10.0635 13.1592H9.06982C9.06982 12.5397 9.29541 12.0259 9.74658 11.6177C10.2013 11.2059 10.7778 11 11.4761 11C12.2137 11 12.792 11.1951 13.2109 11.5854C13.6299 11.9757 13.8394 12.5182 13.8394 13.2129C13.8394 13.5531 13.7284 13.8825 13.5063 14.2012C13.2879 14.5199 12.9889 14.758 12.6094 14.9155C13.0391 15.0516 13.3703 15.2772 13.603 15.5923C13.8394 15.9074 13.9575 16.2923 13.9575 16.7471C13.9575 17.4489 13.7284 18.0057 13.27 18.4175C12.8117 18.8293 12.2155 19.0352 11.4814 19.0352C10.7474 19.0352 10.1494 18.8364 9.6875 18.439C9.22917 18.0415 9 17.5169 9 16.8652H9.99902C9.99902 17.277 10.1333 17.6064 10.4019 17.8535C10.6704 18.1006 11.0303 18.2241 11.4814 18.2241C11.9613 18.2241 12.3283 18.0988 12.5825 17.8481C12.8368 17.5975 12.9639 17.2376 12.9639 16.7686C12.9639 16.3138 12.8242 15.9647 12.5449 15.7212C12.2656 15.4777 11.8628 15.3524 11.3364 15.3452H10.5898V14.5342Z"/>
                <path d="M18.5874 18.9277H17.5884V12.3052L15.585 13.041V12.1387L18.4316 11.0698H18.5874V18.9277Z"/>
                <path fill-rule="evenodd" clip-rule="evenodd"
                      d="M6 6.5C5.44772 6.5 5 6.94772 5 7.5V22.5C5 23.0523 5.44772 23.5 6 23.5H21C21.5523 23.5 22 23.0523 22 22.5V7.5C22 6.94772 21.5523 6.5 21 6.5H6ZM4 7.5C4 6.39543 4.89543 5.5 6 5.5H21C22.1046 5.5 23 6.39543 23 7.5V22.5C23 23.6046 22.1046 24.5 21 24.5H6C4.89543 24.5 4 23.6046 4 22.5V7.5Z"/>
                <path fill-rule="evenodd" clip-rule="evenodd"
                      d="M8 8C7.72386 8 7.5 7.77614 7.5 7.5V4.5C7.5 4.22386 7.72386 4 8 4C8.27614 4 8.5 4.22386 8.5 4.5V7.5C8.5 7.77614 8.27614 8 8 8Z"/>
                <path fill-rule="evenodd" clip-rule="evenodd"
                      d="M19 8C18.7239 8 18.5 7.77614 18.5 7.5V4.5C18.5 4.22386 18.7239 4 19 4C19.2761 4 19.5 4.22386 19.5 4.5V7.5C19.5 7.77614 19.2761 8 19 8Z"/>
            </g>
            <defs>
                <clipPath>
                    <rect height="20.5" transform="translate(4 4)"/>
                </clipPath>
            </defs>
        </symbol>
        <symbol id="roadmap" viewBox="0 0 28 28">
            <g clip-path="url(#clip0_1_2118)">
                <path fill-rule="evenodd" clip-rule="evenodd"
                      d="M9.78947 5.05263C8.91745 5.05263 8.21053 5.75955 8.21053 6.63158C8.21053 7.50361 8.91745 8.21053 9.78947 8.21053H21.3684C22.2404 8.21053 22.9474 7.50361 22.9474 6.63158C22.9474 5.75955 22.2404 5.05263 21.3684 5.05263H9.78947ZM7.15789 6.63158C7.15789 5.1782 8.33609 4 9.78947 4H21.3684C22.8218 4 24 5.1782 24 6.63158C24 8.08496 22.8218 9.26316 21.3684 9.26316H9.78947C8.33609 9.26316 7.15789 8.08496 7.15789 6.63158ZM9.78947 19.7895C8.91745 19.7895 8.21053 20.4964 8.21053 21.3684C8.21053 22.2404 8.91745 22.9474 9.78947 22.9474H21.3684C22.2404 22.9474 22.9474 22.2404 22.9474 21.3684C22.9474 20.4964 22.2404 19.7895 21.3684 19.7895H9.78947ZM7.15789 21.3684C7.15789 19.915 8.33609 18.7368 9.78947 18.7368H21.3684C22.8218 18.7368 24 19.915 24 21.3684C24 22.8218 22.8218 24 21.3684 24H9.78947C8.33609 24 7.15789 22.8218 7.15789 21.3684ZM5.05263 14C5.05263 13.128 5.75955 12.4211 6.63158 12.4211H15.0526C15.9247 12.4211 16.6316 13.128 16.6316 14C16.6316 14.872 15.9247 15.5789 15.0526 15.5789H6.63158C5.75955 15.5789 5.05263 14.872 5.05263 14ZM6.63158 11.3684C5.1782 11.3684 4 12.5466 4 14C4 15.4534 5.1782 16.6316 6.63158 16.6316H15.0526C16.506 16.6316 17.6842 15.4534 17.6842 14C17.6842 12.5466 16.506 11.3684 15.0526 11.3684H6.63158Z"/>
            </g>
            <defs>
                <clipPath>
                    <rect transform="translate(4 4)"/>
                </clipPath>
            </defs>
        </symbol>
        <symbol id="notification"  viewBox="0 0 32 32"  >
            <g clip-path="url(#clip0_1_1769)">
                <path d="M16.5 30.5C17.1193 30.5008 17.7235 30.3086 18.2285 29.9502C18.7335 29.5917 19.1143 29.0849 19.318 28.5H13.682C13.8857 29.0849 14.2665 29.5917 14.7715 29.9502C15.2765 30.3086 15.8807 30.5008 16.5 30.5V30.5ZM23.5 23.086V18.5C23.4973 16.9683 22.9927 15.4797 22.0635 14.2621C21.1343 13.0444 19.8317 12.1649 18.355 11.758C18.2059 11.3881 17.9496 11.0712 17.6191 10.848C17.2885 10.6249 16.8988 10.5056 16.5 10.5056C16.1012 10.5056 15.7115 10.6249 15.3809 10.848C15.0504 11.0712 14.7941 11.3881 14.645 11.758C13.1684 12.165 11.8659 13.0446 10.9367 14.2622C10.0075 15.4798 9.50286 16.9684 9.5 18.5V23.086L7.793 24.793C7.60545 24.9805 7.50006 25.2348 7.5 25.5V26.5C7.5 26.7652 7.60536 27.0196 7.79289 27.2071C7.98043 27.3946 8.23478 27.5 8.5 27.5H24.5C24.7652 27.5 25.0196 27.3946 25.2071 27.2071C25.3946 27.0196 25.5 26.7652 25.5 26.5V25.5C25.4999 25.2348 25.3946 24.9805 25.207 24.793L23.5 23.086Z" />
            </g>
        </symbol>
    </defs>
</svg>
